<?xml version="1.0" encoding="utf-8"?>
<!-- Generator: Adobe Illustrator 15.1.0, SVG Export Plug-In . SVG Version: 6.00 Build 0)  -->
<!DOCTYPE svg PUBLIC "-//W3C//DTD SVG 1.1//EN" "http://www.w3.org/Graphics/SVG/1.1/DTD/svg11.dtd">
<svg version="1.1" id="Layer_1" xmlns="http://www.w3.org/2000/svg" xmlns:xlink="http://www.w3.org/1999/xlink" x="0px" y="0px"
	 width="500px" height="500px" viewBox="0 0 500 500" enable-background="new 0 0 500 500" xml:space="preserve">
<linearGradient id="SVGID_1_" gradientUnits="userSpaceOnUse" x1="142.9629" y1="437.499" x2="142.9629" y2="-26.8398" gradientTransform="matrix(-4.489659e-11 1 -1 -4.489659e-11 470.0322 23.958)">
	<stop  offset="0.1227" style="stop-color:#FFFFFF"/>
	<stop  offset="0.8098" style="stop-color:#FFFFFF"/>
	<stop  offset="0.8589" style="stop-color:#FCEE21"/>
</linearGradient>
<path fill="url(#SVGID_1_)" d="M496.872,166.921C358.275,7.271,53.891,134.465,38.101,141.482
	c-15.79,7.019,7.018,25.438,7.018,25.438s-22.808,18.42-7.018,25.438C53.891,199.377,358.275,326.568,496.872,166.921z"/>
<g id="Layer_6">
	
		<linearGradient id="SVGID_2_" gradientUnits="userSpaceOnUse" x1="134.4634" y1="433.1182" x2="134.4634" y2="305.8359" gradientTransform="matrix(-4.489659e-11 1 -1 -4.489659e-11 470.0322 23.958)">
		<stop  offset="0" style="stop-color:#FCEE21"/>
		<stop  offset="1" style="stop-color:#FCEE21"/>
	</linearGradient>
	<path fill="url(#SVGID_2_)" d="M164.197,103.921c0,0-120.5,37-65,109c-16-5.5-59.5-19.5-59.5-27s9.5-19.5,9.5-19.5
		s-17-14.5-11-19.5S93.697,117.921,164.197,103.921"/>
</g>
<linearGradient id="SVGID_3_" gradientUnits="userSpaceOnUse" x1="143.5938" y1="433.416" x2="388.3299" y2="220.8205" gradientTransform="matrix(1 0 0 -1 0 501)">
	<stop  offset="0" style="stop-color:#5A9FD4"/>
	<stop  offset="1" style="stop-color:#306998"/>
</linearGradient>
<path fill="url(#SVGID_3_)" d="M208.03,95.921c0,0-179.333,56.667-67.333,128c39.333,8.667,174,43.332,270.667-2.667
	c9.333-33.333,2-117.333-61.334-119.333c-38,0-57.667,28.333-65.333,52s2-47.333,61.333-63.667
	c35.667,9,70.667,21.667,70.667,21.667s53.333,36.668,43.667,85.334c-23.667,16-76.167,42.666-126.667,46.166s-113.5,2.5-206-21.5
	c-25.5-6.5-47-15.5-47-15.5s-80-61.5,98-106.5C184.697,98.921,208.03,95.921,208.03,95.921"/>
<path d="M496.872,166.921C358.275,7.271,53.891,134.465,38.101,141.482c-15.79,7.019,7.018,25.438,7.018,25.438
	s-22.808,18.42-7.018,25.438C53.891,199.377,358.275,326.568,496.872,166.921z M46.787,191.304
	c-15.137-6.727,6.728-24.383,6.728-24.383s-21.863-17.657-6.728-24.384c15.135-6.727,306.897-128.646,439.748,24.384
	C353.686,319.95,61.922,198.03,46.787,191.304z"/>
<linearGradient id="path1948_1_" gradientUnits="userSpaceOnUse" x1="469.9463" y1="726.4443" x2="578.9623" y2="820.2379" gradientTransform="matrix(0.5625 0 0 0.568 -57.96 -296.3234)">
	<stop  offset="0" style="stop-color:#5A9FD4"/>
	<stop  offset="1" style="stop-color:#306998"/>
</linearGradient>
<path id="path1948" fill="url(#path1948_1_)" d="M264.041,113.11c-4.584,0.021-8.961,0.412-12.812,1.094
	c-11.347,2.005-13.407,6.2-13.407,13.938v10.219h26.813v3.406h-26.813H227.76c-7.792,0-14.616,4.684-16.75,13.594
	c-2.462,10.213-2.571,16.586,0,27.25c1.906,7.938,6.458,13.594,14.25,13.594h9.219v-12.25c0-8.85,7.657-16.656,16.75-16.656h26.78
	c7.455,0,13.406-6.138,13.406-13.625v-25.531c0-7.266-6.129-12.725-13.406-13.938C273.402,113.438,268.624,113.089,264.041,113.11z
	 M249.541,121.329c2.77,0,5.032,2.299,5.032,5.125c0,2.816-2.263,5.094-5.032,5.094c-2.78,0-5.031-2.277-5.031-5.094
	C244.509,123.628,246.761,121.329,249.541,121.329z"/>
<linearGradient id="path1950_1_" gradientUnits="userSpaceOnUse" x1="621.1201" y1="877.002" x2="582.1902" y2="821.9229" gradientTransform="matrix(0.5625 0 0 0.568 -57.96 -296.3234)">
	<stop  offset="0" style="stop-color:#FFD43B"/>
	<stop  offset="1" style="stop-color:#FFE873"/>
</linearGradient>
<path id="path1950" fill="url(#path1950_1_)" d="M294.759,141.767v11.906c0,9.231-7.825,17-16.75,17h-26.78
	c-7.335,0-13.407,6.278-13.407,13.625v25.531c0,7.267,6.318,11.541,13.407,13.625c8.486,2.496,16.627,2.947,26.78,0
	c6.75-1.954,13.406-5.888,13.406-13.625V199.61h-26.78v-3.406h26.78h13.405c7.794,0,10.697-5.436,13.406-13.594
	c2.801-8.398,2.682-16.476,0-27.25c-1.926-7.757-5.604-13.594-13.406-13.594L294.759,141.767L294.759,141.767z M279.695,206.423
	c2.779,0,5.031,2.277,5.031,5.094c0,2.826-2.252,5.125-5.031,5.125c-2.77,0-5.03-2.299-5.03-5.125
	C274.665,208.7,276.927,206.423,279.695,206.423z"/>
</svg>
